<svg xmlns="http://www.w3.org/2000/svg" viewBox="0 0 100 100" width="100%" height="100%">
    <defs>
        <style>
            .brand-red {
                fill: #d32f2f;
            }

            .scale-white {
                fill: #ffffff;
            }

            .scale-stroke {
                stroke: #ffffff;
                stroke-width: 0.8;
                stroke-linecap: round;
            }
        </style>
    </defs>

    <path class="brand-red" fill-rule="evenodd" stroke="#d32f2f" stroke-width="2" stroke-linejoin="round" d="
    M 22 15
    H 62
    C 87 15, 87 50, 62 50
    L 82 85
    H 57
    L 42 50
    V 85
    H 22
    Z
    M 42 25
    V 48
    L 50 40
    H 57
    C 70 40, 70 25, 57 25
    Z
  " />

    <g style="transform-origin: 64px 71px; transform: scale(0.75);">
        <path class="scale-white" d="M63 64 h2 v13 h3 v1.5 h-8 v-1.5 h3 z" />
        <path class="scale-white" d="M55.5 64 h17 v1.5 h-17 z" />
        <path class="scale-white" d="M54 74 c0 2.5 4 2.5 4 0 z" />
        <path class="scale-white" d="M70 74 c0 2.5 4 2.5 4 0 z" />

        <g class="scale-stroke">
            <line x1="56" y1="65.5" x2="54" y2="74" />
            <line x1="56" y1="65.5" x2="58" y2="74" />

            <line x1="72" y1="65.5" x2="70" y2="74" />
            <line x1="72" y1="65.5" x2="74" y2="74" />
        </g>
    </g>
</svg>